<?xml version="1.0" encoding="utf-8"?>
<!-- Generator: Adobe Illustrator 25.1.0, SVG Export Plug-In . SVG Version: 6.00 Build 0)  -->
<svg version="1.1" id="Layer_1" xmlns="http://www.w3.org/2000/svg" xmlns:xlink="http://www.w3.org/1999/xlink" x="0px" y="0px"
	 viewBox="0 0 576 432" style="enable-background:new 0 0 576 432;" xml:space="preserve">
<style type="text/css">
	.st0{fill:#ECF0F4;}
	.st1{clip-path:url(#SVGID_2_);fill:#41AD49;}
	.st2{clip-path:url(#SVGID_4_);fill:#FFFFFF;}
	.st3{clip-path:url(#SVGID_6_);fill:#231F20;}
	.st4{clip-path:url(#SVGID_6_);fill:#41AD49;}
	.st5{clip-path:url(#SVGID_8_);fill:#FFFFFF;}
	.st6{clip-path:url(#SVGID_10_);fill:#41AD49;}
	.st7{clip-path:url(#SVGID_12_);fill:#FFFFFF;}
	.st8{clip-path:url(#SVGID_14_);fill:#41AD49;}
	.st9{clip-path:url(#SVGID_16_);fill:#FFFFFF;}
	.st10{clip-path:url(#SVGID_18_);fill:#231F20;}
	.st11{fill:#231F20;}
	.st12{clip-path:url(#SVGID_20_);fill:#231F20;}
	.st13{clip-path:url(#SVGID_20_);fill:#41AD49;}
	.st14{fill:#FFFFFF;}
</style>
<rect class="st0" width="576" height="432"/>
<g>
	<defs>
		<rect id="SVGID_1_" width="576" height="432"/>
	</defs>
	<clipPath id="SVGID_2_">
		<use xlink:href="#SVGID_1_"  style="overflow:visible;"/>
	</clipPath>
	<path class="st1" d="M407.2,71.4c6.6,0,11.6-3.4,11.6-9.8c0-5.8-3.4-8.4-9.3-11l-1.8-0.8c-3-1.3-4.3-2.1-4.3-4.2c0-1.7,1.3-3,3.4-3
		c2,0,3.3,0.9,4.5,3l5.4-3.5c-2.3-4-5.5-5.6-9.9-5.6c-6.2,0-10.2,4-10.2,9.2c0,5.7,3.3,8.4,8.4,10.5l1.8,0.8
		c3.2,1.4,5.1,2.2,5.1,4.6c0,2-1.9,3.5-4.8,3.5c-3.5,0-5.4-1.8-6.9-4.2l-5.7,3.3C396.5,68.3,400.7,71.4,407.2,71.4 M369.4,71h22.4
		v-6.1h-15.4V37h-7V71z M345.9,65.2c-6.2,0-10.4-4.8-10.4-11.2s4.2-11.2,10.4-11.2s10.4,4.9,10.4,11.2S352.1,65.2,345.9,65.2
		 M345.9,71.4c9.8,0,17.6-7.4,17.6-17.4c0-10.1-7.8-17.5-17.6-17.5s-17.6,7.4-17.6,17.5C328.3,64,336.1,71.4,345.9,71.4 M305.7,56.4
		V43.1h2.2c5.6,0,8.2,1.9,8.2,6.7c0,4.8-2.5,6.6-8.2,6.6H305.7z M316.8,60.4c4.2-1.9,6.6-5.2,6.6-10.5c0-8.3-5.7-12.9-15.2-12.9
		h-9.4v34h7v-8.5h2.4c0.6,0,1.4,0,2-0.1l5.6,8.6h8.1L316.8,60.4z M276.9,71h7V43.1h9.7V37h-26.4v6.1h9.7V71z M261.3,71.3h0.7V37
		h-6.5v14.2c0,2.4,0.4,6.2,0.4,6.2s-2.3-3.1-4-4.6l-17.1-16.1h-0.7V71h6.6V56.7c0-2.5-0.5-6.2-0.5-6.2s2.4,3.1,4.1,4.6L261.3,71.3z
		 M210.5,65.2c-6.2,0-10.4-4.8-10.4-11.2s4.2-11.2,10.4-11.2s10.4,4.9,10.4,11.2S216.7,65.2,210.5,65.2 M210.5,71.4
		c9.8,0,17.6-7.4,17.6-17.4c0-10.1-7.8-17.5-17.6-17.5s-17.6,7.4-17.6,17.5C192.9,64,200.7,71.4,210.5,71.4 M175.2,71.4
		c6.5,0,11.2-2.9,14.2-7.5l-5.4-3.8c-1.9,2.9-4.4,5-8.8,5c-6.2,0-10.3-4.8-10.3-11.2s4.1-11.1,10.3-11.1c3.9,0,6.6,1.9,8.2,4.5
		l5.3-3.8c-3.1-4.8-7.4-6.9-13.6-6.9c-9.8,0-17.5,7.3-17.5,17.4C157.7,64,165.4,71.4,175.2,71.4"/>
	<path class="st1" d="M162.5,135c-5.4,0-9.7,4.3-9.7,9.7v67.9c0,5.4,4.3,9.7,9.7,9.7h67.9c5.4,0,9.7-4.3,9.7-9.7v-67.9
		c0-5.4-4.3-9.7-9.7-9.7H162.5z"/>
</g>
<g>
	<defs>
		<rect id="SVGID_3_" x="173" y="151.6" width="46.8" height="54"/>
	</defs>
	<clipPath id="SVGID_4_">
		<use xlink:href="#SVGID_3_"  style="overflow:visible;"/>
	</clipPath>
	<path class="st2" d="M186.7,177.1h-0.7c-3.5,0-7,0-10.5,0c-0.2,0-0.5,0-0.7,0c-0.8-0.1-1.4-0.5-1.6-1.3c-0.3-0.8-0.1-1.4,0.5-2
		c1-1,2-2,3-3c6-6,12-12,18-18c1.2-1.2,2.1-1.2,3.3,0c6.9,7,13.9,13.9,20.8,20.8c0.6,0.6,0.9,1.4,0.6,2.2c-0.4,0.9-1.1,1.2-2,1.2
		c-3.6,0-7.2,0-10.9,0H206v0.7c0,8.6,0,17.1,0,25.7c0,1.4-0.7,2.1-2.2,2.1c-4.9,0-9.9,0-14.8,0c-1.5,0-2.2-0.7-2.2-2.2
		c0-8.4,0-16.9,0-25.3V177.1z"/>
</g>
<g>
	<defs>
		<rect id="SVGID_5_" width="576" height="432"/>
	</defs>
	<clipPath id="SVGID_6_">
		<use xlink:href="#SVGID_5_"  style="overflow:visible;"/>
	</clipPath>
	<path class="st3" d="M202.7,119v-7h1.1c2.8,0,4.1,1.1,4.1,3.5c0,2.3-1.2,3.5-4.1,3.5H202.7z M199.2,126h3.5v-3.9h1.2
		c4.7,0,7.6-2.5,7.6-6.6s-2.9-6.6-7.6-6.6h-4.7V126z M188.9,126.2c3.9,0,6.8-2.1,6.8-6.4V109h-3.5v10.6c0,2.5-1.1,3.4-3.3,3.4
		c-2.3,0-3.4-0.9-3.4-3.4V109H182v10.8C182,124.1,185,126.2,188.9,126.2"/>
	<path class="st4" d="M162.5,235.8c-5.4,0-9.7,4.3-9.7,9.7v67.9c0,5.4,4.3,9.7,9.7,9.7h67.9c5.4,0,9.7-4.3,9.7-9.7v-67.9
		c0-5.4-4.3-9.7-9.7-9.7H162.5z"/>
</g>
<g>
	<defs>
		<rect id="SVGID_7_" x="173" y="252.4" width="46.8" height="54"/>
	</defs>
	<clipPath id="SVGID_8_">
		<use xlink:href="#SVGID_7_"  style="overflow:visible;"/>
	</clipPath>
	<path class="st5" d="M206.1,280.9h0.7c3.5,0,7,0,10.5,0c0.2,0,0.5,0,0.7,0c0.8,0.1,1.4,0.5,1.6,1.3c0.3,0.8,0.1,1.4-0.5,2
		c-1,1-2,2-3,3c-6,6-12,12-18,18c-1.2,1.2-2.1,1.2-3.3,0c-6.9-7-13.9-13.9-20.8-20.8c-0.6-0.6-0.9-1.4-0.6-2.2
		c0.4-0.9,1.1-1.2,2-1.2c3.6,0,7.2,0,10.9,0h0.7v-0.7c0-8.6,0-17.1,0-25.7c0-1.4,0.7-2.1,2.2-2.1c4.9,0,9.9,0,14.8,0
		c1.5,0,2.2,0.7,2.2,2.2c0,8.4,0,16.9,0,25.3V280.9z"/>
</g>
<g>
	<defs>
		<rect id="SVGID_9_" width="576" height="432"/>
	</defs>
	<clipPath id="SVGID_10_">
		<use xlink:href="#SVGID_9_"  style="overflow:visible;"/>
	</clipPath>
	<path class="st6" d="M263.2,235.8c-5.4,0-9.7,4.3-9.7,9.7v67.9c0,5.4,4.3,9.7,9.7,9.7h67.9c5.4,0,9.7-4.3,9.7-9.7v-67.9
		c0-5.4-4.3-9.7-9.7-9.7H263.2z"/>
</g>
<g>
	<defs>
		<rect id="SVGID_11_" x="270.2" y="256" width="54" height="46.8"/>
	</defs>
	<clipPath id="SVGID_12_">
		<use xlink:href="#SVGID_11_"  style="overflow:visible;"/>
	</clipPath>
	<path class="st7" d="M298.7,269.7V269c0-3.5,0-7,0-10.5c0-0.2,0-0.5,0-0.7c0.1-0.8,0.5-1.4,1.3-1.6c0.8-0.3,1.4-0.1,2,0.5
		c1,1,2,2,3,3c6,6,12,12,18,18c1.2,1.2,1.2,2.1,0,3.3c-7,6.9-13.9,13.9-20.8,20.8c-0.6,0.6-1.4,0.9-2.2,0.6c-0.9-0.4-1.2-1.1-1.2-2
		c0-3.6,0-7.2,0-10.9v-0.7H298c-8.6,0-17.1,0-25.7,0c-1.4,0-2.1-0.7-2.1-2.2c0-4.9,0-9.9,0-14.8c0-1.5,0.7-2.2,2.2-2.2
		c8.4,0,16.9,0,25.3,0H298.7z"/>
</g>
<g>
	<defs>
		<rect id="SVGID_13_" width="576" height="432"/>
	</defs>
	<clipPath id="SVGID_14_">
		<use xlink:href="#SVGID_13_"  style="overflow:visible;"/>
	</clipPath>
	<path class="st8" d="M61.7,235.8c-5.4,0-9.7,4.3-9.7,9.7v67.9c0,5.4,4.3,9.7,9.7,9.7h67.9c5.4,0,9.7-4.3,9.7-9.7v-67.9
		c0-5.4-4.3-9.7-9.7-9.7H61.7z"/>
</g>
<g>
	<defs>
		<rect id="SVGID_15_" x="68.6" y="256" width="54" height="46.8"/>
	</defs>
	<clipPath id="SVGID_16_">
		<use xlink:href="#SVGID_15_"  style="overflow:visible;"/>
	</clipPath>
	<path class="st9" d="M94.1,289v0.7c0,3.5,0,7,0,10.5c0,0.2,0,0.5,0,0.7c-0.1,0.8-0.5,1.4-1.3,1.6c-0.8,0.3-1.4,0.1-2-0.5
		c-1-1-2-2-3-3c-6-6-12-12-18-18c-1.2-1.2-1.2-2.1,0-3.3c7-6.9,13.9-13.9,20.8-20.8c0.6-0.6,1.4-0.9,2.2-0.6c0.9,0.4,1.2,1.1,1.2,2
		c0,3.6,0,7.2,0,10.9v0.7h0.7c8.6,0,17.1,0,25.7,0c1.4,0,2.1,0.7,2.1,2.2c0,4.9,0,9.9,0,14.8c0,1.5-0.7,2.2-2.2,2.2
		c-8.4,0-16.9,0-25.3,0H94.1z"/>
</g>
<g>
	<defs>
		<rect id="SVGID_17_" width="576" height="432"/>
	</defs>
	<clipPath id="SVGID_18_">
		<use xlink:href="#SVGID_17_"  style="overflow:visible;"/>
	</clipPath>
	<path class="st10" d="M324.8,349.5h3.5v-13.9h4.9v-3.1H320v3.1h4.9V349.5z M303.1,349.5h3.5v-5.2h7.3v5.2h3.5v-17h-3.5v8.7h-7.3
		v-8.7h-3.5V349.5z M293.3,349.7c3.1,0,5.5-1.2,6.5-2v-7.4h-7.3v3.1h4.1v2.5c-0.9,0.4-2.2,0.6-3.3,0.6c-3.6,0-5.6-2.4-5.6-5.6
		c0-3.2,2-5.6,5.1-5.6c2,0,3,0.7,3.8,1.6l2.4-2.4c-1.4-1.6-3.4-2.4-6.2-2.4c-5.1,0-8.7,3.7-8.7,8.7
		C284.1,346,287.7,349.7,293.3,349.7 M277.5,349.5h3.5v-17h-3.5V349.5z M265.6,342.2v-6.6h1.1c2.8,0,4.1,1,4.1,3.4s-1.2,3.3-4.1,3.3
		H265.6z M271.1,344.2c2.1-0.9,3.3-2.6,3.3-5.3c0-4.1-2.9-6.4-7.6-6.4h-4.7v17h3.5v-4.2h1.2c0.3,0,0.7,0,1-0.1l2.8,4.3h4.1
		L271.1,344.2z"/>
	<path class="st10" d="M233,349.7h0.3v-17.1h-3.3v7.1c0,1.2,0.2,3.1,0.2,3.1s-1.2-1.5-2-2.3l-8.6-8.1h-0.3v17.2h3.3v-7.1
		c0-1.2-0.2-3.1-0.2-3.1s1.2,1.5,2,2.3L233,349.7z M200.5,349.7h0.4l4-8.2c0.4-0.9,1-2.5,1-2.5s0.5,1.6,0.9,2.5l3.8,8.2h0.3
		l6.2-17.1h-3.4l-2.5,6.8c-0.4,1.2-0.9,3.1-0.9,3.1s-0.5-1.9-1.1-3.1l-3.3-7h-0.4l-3.3,7c-0.6,1.1-1.1,3.1-1.1,3.1s-0.5-1.9-0.9-3.1
		l-2.5-6.8h-3.7L200.5,349.7z M184.8,346.6c-3.1,0-5.2-2.4-5.2-5.6c0-3.2,2.1-5.6,5.2-5.6c3.1,0,5.2,2.4,5.2,5.6
		C190,344.2,187.9,346.6,184.8,346.6 M184.8,349.7c4.9,0,8.8-3.7,8.8-8.7c0-5-3.9-8.7-8.8-8.7c-4.9,0-8.8,3.7-8.8,8.7
		C176,346,179.9,349.7,184.8,349.7 M162.9,346.4v-10.9h1.5c3.8,0,5.5,2.2,5.5,5.4c0,3.2-1.7,5.4-5.5,5.4H162.9z M159.4,349.5h5.2
		c5.2,0,8.9-3.5,8.9-8.5c0-5-3.7-8.5-8.9-8.5h-5.2V349.5z"/>
</g>
<path class="st11" d="M115.3,349.5h3.5v-13.9h4.8v-3.1h-13.2v3.1h4.9V349.5z M97.5,349.5h3.5v-5.2h6.8v-3.1H101v-5.6h7.4v-3.1H97.5
	V349.5z M82.6,349.5h11.6v-3.1h-8.1V344H93v-3h-6.8v-5.4h7.8v-3.1H82.6V349.5z M68.6,349.5h11.2v-3.1h-7.7v-13.9h-3.5V349.5z"/>
<g>
	<defs>
		<rect id="SVGID_19_" width="576" height="432"/>
	</defs>
	<clipPath id="SVGID_20_">
		<use xlink:href="#SVGID_19_"  style="overflow:visible;"/>
	</clipPath>
	<path class="st12" d="M495.7,278.9v-7h1.1c2.8,0,4.1,1.1,4.1,3.5c0,2.3-1.2,3.5-4.1,3.5H495.7z M492.2,285.9h3.5V282h1.2
		c4.7,0,7.6-2.5,7.6-6.5c0-4.1-2.9-6.6-7.6-6.6h-4.7V285.9z M485.1,285.9h3.5v-17h-3.5V285.9z M471,285.9h11.2v-3.1h-7.7v-13.9H471
		V285.9z M457.1,285.9h3.5v-5.2h6.8v-3.1h-6.8V272h7.4v-3.1h-10.9V285.9z"/>
	<path class="st13" d="M446.4,172.1c-5.4,0-9.7,4.3-9.7,9.7v67.9c0,5.4,4.3,9.7,9.7,9.7h67.9c5.4,0,9.7-4.3,9.7-9.7v-67.9
		c0-5.4-4.3-9.7-9.7-9.7H446.4z"/>
</g>
<polygon class="st14" points="466.4,238.2 475.9,238.2 475.9,224.2 494.1,224.2 494.1,215.8 475.9,215.8 475.9,200.6 496,200.6 
	496,192.3 466.4,192.3 "/>
</svg>
